<?xml version='1.0' encoding='utf-8'?>
<svg version="1.1" xmlns="http://www.w3.org/2000/svg"
 viewBox="0 0 512 512" xmlns:xlink="http://www.w3.org/1999/xlink" enable-background="new 0 0 512 512">
  <g>
    <g style="fill:#231f20">
      <path d="m 34,256 26.2,26.2 c 108,108 283.7,108 391.7,0 L 478,256 451.8,229.8 c -108,-108 -283.7,-108 -391.7,0 z m 222,126.2 c -75.8,0 -151.6,-28.9 -209.3,-86.6 L 13.8,262.7 c -3.7,-3.7 -3.7,-9.7 0,-13.5 l 32.9,-32.9 c 115.4,-115.4 303.2,-115.4 418.6,0 l 32.9,32.9 c 3.7,3.7 3.7,9.7 0,13.5 l -32.9,32.9 C 407.6,353.3 331.8,382.2 256,382.2 Z"/>
      <path d="m 256,183.5 c -40,0 -72.5,32.5 -72.5,72.5 0,40 32.5,72.5 72.5,72.5 40,0 72.5,-32.5 72.5,-72.5 0,-40 -32.5,-72.5 -72.5,-72.5 z m 0,164 c -50.5,0 -91.5,-41.1 -91.5,-91.5 0,-50.5 41.1,-91.5 91.5,-91.5 50.4,0 91.5,41.1 91.5,91.5 0,50.5 -41,91.5 -91.5,91.5 z"/>
      <path d="m 281.69131,301.72647 c 6.67839,-6.67839 13.35677,-13.35677 20.03516,-20.03516 -12.29588,-5.61749 -24.59176,-11.23498 -36.88764,-16.85247 5.61749,12.29587 11.23498,24.59176 16.85248,36.88763 z m -2.71034,9.07431 c 10.6066,-10.60661 21.2132,-21.21321 31.8198,-31.81981 C 292.53385,271.32064 274.26692,263.66032 256,256 c 7.66032,18.26693 15.32064,36.53385 22.98097,54.80078 z"/>
    </g>
  </g>
</svg>
